<?xml version="1.0" encoding="UTF-8" standalone="no"?>
<!-- Created with Inkscape (http://www.inkscape.org/) -->

<svg
   width="210mm"
   height="297mm"
   viewBox="0 0 210 297"
   version="1.1"
   id="svg1"
   xml:space="preserve"
   inkscape:version="1.4.2 (f4327f4, 2025-05-13)"
   sodipodi:docname="_mt_letrafinal.svg"
   xmlns:inkscape="http://www.inkscape.org/namespaces/inkscape"
   xmlns:sodipodi="http://sodipodi.sourceforge.net/DTD/sodipodi-0.dtd"
   xmlns="http://www.w3.org/2000/svg"
   xmlns:svg="http://www.w3.org/2000/svg"><sodipodi:namedview
     id="namedview1"
     pagecolor="#ffffff"
     bordercolor="#000000"
     borderopacity="0.25"
     inkscape:showpageshadow="2"
     inkscape:pageopacity="0.0"
     inkscape:pagecheckerboard="0"
     inkscape:deskcolor="#d1d1d1"
     inkscape:document-units="mm"
     inkscape:zoom="0.54"
     inkscape:cx="397.22222"
     inkscape:cy="480.55556"
     inkscape:window-width="1366"
     inkscape:window-height="697"
     inkscape:window-x="-8"
     inkscape:window-y="-8"
     inkscape:window-maximized="1"
     inkscape:current-layer="layer1" /><defs
     id="defs1" /><g
     inkscape:label="Capa 1"
     inkscape:groupmode="layer"
     id="layer1"><path
       style="fill:#000000"
       d="m 72.362178,138.85861 c -1.718419,-1.85435 -2.028598,-5.33071 -0.927292,-10.39272 0.846388,-3.89032 2.735855,-9.14216 4.773871,-13.26917 1.053793,-2.13394 1.38669,-3.0623 0.98237,-2.73956 -0.336358,0.26848 -2.09723,1.70608 -3.913048,3.19466 -3.734717,3.06166 -6.881278,4.83515 -8.027724,4.52465 -1.013292,-0.27444 -1.588204,-1.88178 -1.329269,-3.71637 0.204318,-1.44762 1.053611,-4.22177 2.36871,-7.73722 l 0.682833,-1.82531 -1.036772,0.78361 c -1.869458,1.41297 -8.022579,8.27167 -10.745244,11.9774 -1.467371,1.9972 -3.789053,5.28715 -5.159293,7.31101 -1.772825,2.61849 -2.589484,3.57386 -2.831621,3.31257 -0.508057,-0.54825 -0.153585,-1.19081 4.841181,-8.7757 6.981135,-10.60133 9.502694,-15.52064 9.51856,-18.5698 0.0105,-2.01739 -0.951159,-2.67609 -3.828162,-2.62215 -3.511664,0.0658 -10.465146,2.84621 -11.472869,4.58747 -0.479935,0.82929 -0.744644,0.85913 -1.009676,0.11384 -0.718634,-2.02086 7.393624,-5.941034 12.288484,-5.938294 5.362296,0.003 6.277161,3.369624 2.91085,10.711654 l -1.379116,3.00789 2.807585,-2.852 c 3.017055,-3.06478 4.695405,-4.25462 5.519869,-3.91322 0.765613,0.31703 0.63888,1.32755 -0.558111,4.45012 -2.011764,5.24805 -2.582818,8.27684 -1.634566,8.6695 0.731177,0.30277 3.58019,-1.28877 6.518256,-3.64129 5.100931,-4.08433 7.914543,-6.93478 10.644208,-10.78357 4.067707,-5.735414 4.18892,-5.875874 4.645539,-5.383134 0.312808,0.33755 0.271087,0.65142 -0.203896,1.533974 -0.829422,1.54113 -3.229712,4.91842 -4.804385,6.75995 -2.69271,3.14904 -6.745019,11.44211 -8.769132,17.94607 -1.038859,3.33811 -1.318347,4.77829 -1.440487,7.42271 -0.174498,3.77804 0.08364,4.58535 1.699088,5.31372 0.596839,0.2691 1.085161,0.71836 1.085161,0.99835 0,0.83937 -1.25295,0.57948 -2.215902,-0.45964 z m 46.326732,-6.37596 c 0,-0.44964 6.061,-10.97738 10.62771,-18.45996 1.62476,-2.66217 1.80591,-3.13271 1.6374,-4.25322 -0.21183,-1.40862 -0.9415,-2.61195 -2.19733,-3.62373 -0.96531,-0.77771 -2.2859,-0.84641 -7.76704,-0.40405 -3.10459,0.25056 -3.57012,0.22003 -3.57012,-0.2341 0,-0.65312 1.35457,-0.90917 6.8229,-1.2897 2.26901,-0.15789 5.98194,-0.6914 8.25095,-1.18558 6.18211,-1.34642 10.98529,-2.17631 15.29141,-2.64204 5.42939,-0.587234 7.16554,-0.005 6.64601,2.22866 -0.29847,1.28329 -0.96331,1.17852 -0.72374,-0.11405 0.16541,-0.89251 0.0842,-1.05172 -0.63576,-1.24672 -1.76797,-0.47883 -14.66199,1.19788 -15.60701,2.0295 -0.9587,0.84367 -5.70421,8.71918 -5.92254,9.82888 -0.66492,3.37968 -3.05351,7.49889 -8.24078,14.2115 -1.60101,2.0718 -3.1673,4.19068 -3.48065,4.70863 -0.62122,1.02686 -1.13141,1.22796 -1.13141,0.44598 z m 7.86999,-11.0618 c 1.53692,-2.24395 4.08937,-6.93453 3.77354,-6.93453 -0.0861,0 -1.19249,1.73363 -2.45875,3.85252 -1.26626,2.11888 -2.51063,4.19924 -2.76527,4.62302 -0.99249,1.65175 -0.0517,0.6523 1.45048,-1.54101 z m 9.21581,-17.70655 c -0.15143,-0.14551 -6.91997,1.05771 -7.11128,1.26415 -0.0862,0.093 0.20947,0.42793 0.65697,0.74434 0.4475,0.3164 1.18785,1.39866 1.64524,2.40501 l 0.8316,1.82973 2.04268,-3.06978 c 1.12347,-1.68837 1.99413,-3.11643 1.93479,-3.17345 z m 8.99524,22.18101 c -0.65142,-0.28122 -1.00669,-1.66948 -0.71148,-2.78023 l 0.26736,-1.00598 -2.05182,1.15407 c -1.1285,0.63475 -2.37632,1.15408 -2.77294,1.15408 -0.75438,0 -1.77152,-0.95651 -1.77152,-1.66593 0,-0.24167 -0.49205,-0.0526 -1.18437,0.45503 -1.43646,1.05331 -2.02461,1.08718 -2.80109,0.16131 -0.58062,-0.69233 -0.5776,-0.73857 0.14412,-2.20665 0.40544,-0.82472 1.00422,-1.76029 1.33061,-2.07903 0.53739,-0.52481 0.61179,-0.52794 0.78772,-0.0332 0.1165,0.3276 -0.21989,1.16868 -0.84016,2.10072 -1.81325,2.72462 -0.4776,2.48927 2.85437,-0.50296 2.36604,-2.12479 3.18744,-1.94498 1.64069,0.35915 -1.87733,2.79656 -1.03931,3.09212 2.77835,0.97989 1.94931,-1.07851 2.63214,-1.64906 2.94309,-2.45915 0.58322,-1.51939 4.73206,-8.13618 6.52619,-10.4083 1.58046,-2.00153 3.70884,-3.87786 4.39878,-3.87786 2.52051,0 -3.31212,9.79472 -8.57813,14.40522 -2.03641,1.78292 -3.39259,4.18415 -2.87427,5.08914 0.58115,1.01471 6.31417,-2.10203 8.64758,-4.70123 0.90841,-1.01189 1.80133,-1.73999 1.98426,-1.61799 0.40684,0.27133 0.0588,1.03154 -1.44696,3.16017 -1.17428,1.66009 -1.36477,2.49922 -0.56733,2.49922 1.05963,0 4.47662,-2.28725 6.25802,-4.18896 1.01756,-1.08629 2.0653,-1.97507 2.32831,-1.97507 0.26301,0 0.6399,0.4623 0.83755,1.02734 0.34624,0.98985 0.43139,1.02734 2.33378,1.02734 1.77726,0 2.70714,0.39124 2.20857,0.92925 -0.10133,0.10934 -1.17804,0.1988 -2.39269,0.1988 -2.13299,0 -2.22137,0.0336 -2.58614,0.98391 -0.42226,1.10006 -2.01049,2.68228 -2.69246,2.68228 -0.3452,0 -1.07925,-0.91558 -1.57386,-1.96306 -0.0207,-0.0438 -0.9997,0.4717 -2.17563,1.14551 -2.40192,1.37632 -3.54999,1.3721 -3.87243,-0.0142 l -0.19103,-0.82133 -2.67766,1.51143 c -2.51799,1.4213 -3.51759,1.70456 -4.50738,1.27726 z m 16.31686,-3.52425 c 0.77822,-1.26898 0.85588,-2.4056 0.16438,-2.4056 -0.55376,0 -1.94224,2.09966 -1.94224,2.93706 0,1.26219 0.83005,1.01406 1.77786,-0.53146 z m -6.88898,-12.37747 c 0.88566,-1.55299 1.52608,-2.91107 1.42316,-3.01796 -0.48337,-0.50197 -5.98759,6.87838 -8.02769,10.76393 -1.37581,2.62036 4.87067,-4.70567 6.60453,-7.74597 z m -58.913048,14.94294 c -0.877839,-0.68616 -0.898179,-1.31546 -0.08823,-2.72965 l 0.625795,-1.09265 -0.927094,0.14683 c -0.699881,0.11085 -1.115686,-0.0728 -1.696602,-0.74916 l -0.769508,-0.89599 -1.136031,1.35692 c -0.624818,0.7463 -1.522395,1.98693 -1.994615,2.75694 -1.059742,1.72805 -1.813358,1.37504 -0.998932,-0.46792 l 0.513617,-1.16226 -1.802038,1.17255 c -2.833713,1.84385 -3.926993,1.89538 -4.636813,0.21858 -0.289783,-0.68456 -0.322552,-0.67856 -1.554998,0.28484 -1.412137,1.10386 -2.166028,1.23038 -2.756521,0.4626 -0.600665,-0.78101 0.409165,-2.9179 2.263353,-4.78946 1.58115,-1.59597 2.107873,-1.79013 3.178696,-1.17171 0.460816,0.26613 0.75763,0.25559 1.086086,-0.0386 0.355795,-0.31864 0.492582,-0.29059 0.642794,0.13182 0.109789,0.30874 -0.292884,1.38224 -0.948277,2.52806 -1.981173,3.46364 -1.337662,3.70001 2.821122,1.03622 2.113774,-1.35392 3.009064,-2.15721 3.625811,-3.25324 0.450433,-0.80046 0.998514,-1.45539 1.217959,-1.45539 0.506193,0 0.516854,0.76317 0.01818,1.30129 -0.274301,0.296 -0.27954,0.41094 -0.01873,0.41094 0.199146,0 0.450342,-0.1541 0.558213,-0.34245 0.323608,-0.56502 0.793361,-0.38709 0.793361,0.30052 0,1.80911 2.045303,1.75606 4.779957,-0.12399 0.949078,-0.65249 1.972783,-1.19028 2.274903,-1.1951 0.68718,-0.011 1.01199,1.266 0.60954,2.3964 -0.31246,0.87767 -0.50962,0.6528 -0.75766,-0.86416 -0.0933,-0.5706 -0.493562,-0.27651 -2.398659,1.76242 -2.809315,3.00666 -2.948679,3.70127 -0.695742,3.46767 2.425447,-0.25149 5.972161,-2.29948 7.876841,-4.54834 0.87589,-1.03417 1.82966,-1.88031 2.11948,-1.88031 0.29409,0 0.68576,0.45399 0.88631,1.02734 0.34624,0.98985 0.43139,1.02734 2.33379,1.02734 1.77725,0 2.70713,0.39124 2.20856,0.92925 -0.10133,0.10934 -1.17803,0.1988 -2.39269,0.1988 -2.13299,0 -2.22137,0.0336 -2.58614,0.98391 -0.42823,1.11563 -2.01372,2.68228 -2.71454,2.68228 -0.25653,0 -0.70108,-0.44122 -0.98789,-0.98048 l -0.52147,-0.98047 -2.12086,1.16268 c -2.561987,1.4045 -4.891028,1.78746 -5.93033,0.9751 z M 81.455644,121.6494 c 1.971138,-1.86561 2.439535,-2.71128 1.501707,-2.71128 -0.771337,0 -2.300379,1.30219 -3.329984,2.83595 -1.769705,2.63624 -1.035957,2.58621 1.828277,-0.12467 z m 24.730636,0.72166 c 0.77822,-1.26898 0.85589,-2.4056 0.16438,-2.4056 -0.55376,0 -1.94223,2.09966 -1.94223,2.93706 0,1.26219 0.83005,1.01406 1.77785,-0.53146 z m 50.17017,-6.04824 c -0.29934,-0.32303 1.01752,-2.17895 1.54606,-2.17895 0.62272,0 0.55268,0.70169 -0.16237,1.62662 -0.60437,0.78178 -1.01804,0.9469 -1.38369,0.55233 z"
       id="path1" /></g></svg>
